<?xml version="1.0" encoding="UTF-8"?><svg xmlns="http://www.w3.org/2000/svg" xmlns:xlink="http://www.w3.org/1999/xlink" fill-opacity="1" color-rendering="auto" color-interpolation="auto" text-rendering="auto" stroke="black" stroke-linecap="square" width="1064" stroke-miterlimit="10" shape-rendering="auto" stroke-opacity="1" fill="black" stroke-dasharray="none" font-weight="normal" stroke-width="1" height="1411" font-family="'Dialog'" font-style="normal" stroke-linejoin="miter" font-size="12px" stroke-dashoffset="0" image-rendering="auto">
  <!--Generated by ySVG 2.5-->
  <defs id="genericDefs"/>
  <g>
    <g fill="white" text-rendering="geometricPrecision" shape-rendering="geometricPrecision" transform="translate(269,-77)" stroke="white">
      <rect x="-269" width="1064" height="1411" y="77" clip-path="url(#clipPath2)" stroke="none"/>
    </g>
    <g id="y.node.0">
      <g text-rendering="geometricPrecision" stroke-miterlimit="1.45" shape-rendering="geometricPrecision" transform="matrix(1,0,0,1,269,-77)" stroke-linecap="butt">
        <rect x="272.44" y="92" fill="none" width="210.12" rx="28" ry="28" height="56"/>
      </g>
      <g>
        <g text-rendering="geometricPrecision" stroke-miterlimit="1.45" shape-rendering="geometricPrecision" font-family="sans-serif" transform="matrix(1,0,0,1,269,-77)" stroke-linecap="butt">
          <text x="356.5293" xml:space="preserve" y="124.7139" stroke="none">Начало</text>
        </g>
      </g>
    </g>
    <g id="y.node.1">
      <g text-rendering="geometricPrecision" stroke-miterlimit="1.45" shape-rendering="geometricPrecision" transform="matrix(1,0,0,1,269,-77)" stroke-linecap="butt">
        <path fill="none" d="M272.44 173 L482.56 173 L482.56 251 L272.44 251 Z"/>
      </g>
      <g>
        <g text-rendering="geometricPrecision" stroke-miterlimit="1.45" shape-rendering="geometricPrecision" font-family="sans-serif" transform="matrix(1,0,0,1,269,-77)" stroke-linecap="butt">
          <text x="274.6797" xml:space="preserve" y="202.0127" stroke="none">В каждом столбце матрицы С найти </text>
          <text x="275.2715" xml:space="preserve" y="216.7139" stroke="none">наименьший элемент и вычесть его </text>
          <text x="284.79" xml:space="preserve" y="231.415" stroke="none">из всех элементов этого столбца</text>
        </g>
      </g>
    </g>
    <g id="y.node.2">
      <g text-rendering="geometricPrecision" stroke-miterlimit="1.45" shape-rendering="geometricPrecision" transform="matrix(1,0,0,1,269,-77)" stroke-linecap="butt">
        <path fill="none" d="M272.44 276 L482.56 276 L482.56 354 L272.44 354 Z"/>
      </g>
      <g>
        <g text-rendering="geometricPrecision" stroke-miterlimit="1.45" shape-rendering="geometricPrecision" font-family="sans-serif" transform="matrix(1,0,0,1,269,-77)" stroke-linecap="butt">
          <text x="285.2734" xml:space="preserve" y="297.6621" stroke="none">В полученной матрице в каждой </text>
          <text x="277.5039" xml:space="preserve" y="312.3633" stroke="none">строке найти наименьший элемент </text>
          <text x="283.873" xml:space="preserve" y="327.0645" stroke="none">и вычесть его из всех элементов </text>
          <text x="344.9365" xml:space="preserve" y="341.7656" stroke="none">этой строки</text>
        </g>
      </g>
    </g>
    <g id="y.node.3">
      <g text-rendering="geometricPrecision" stroke-miterlimit="1.45" shape-rendering="geometricPrecision" transform="matrix(1,0,0,1,269,-77)" stroke-linecap="butt">
        <path fill="none" d="M272.44 482 L482.56 482 L482.56 560 L272.44 560 Z"/>
      </g>
      <g>
        <g text-rendering="geometricPrecision" stroke-miterlimit="1.45" shape-rendering="geometricPrecision" font-family="sans-serif" transform="matrix(1,0,0,1,269,-77)" stroke-linecap="butt">
          <text x="280.7881" xml:space="preserve" y="525.7139" stroke="none">k - число 0* в полученной матрице</text>
        </g>
      </g>
    </g>
    <g id="y.node.4">
      <g text-rendering="geometricPrecision" stroke-miterlimit="1.45" shape-rendering="geometricPrecision" transform="matrix(1,0,0,1,269,-77)" stroke-linecap="butt">
        <path fill="none" d="M377.5 602.86 L482.56 641.86 L377.5 680.86 L272.44 641.86 Z"/>
      </g>
      <g>
        <g text-rendering="geometricPrecision" stroke-miterlimit="1.45" shape-rendering="geometricPrecision" font-family="sans-serif" transform="matrix(1,0,0,1,269,-77)" stroke-linecap="butt">
          <text x="360.9883" xml:space="preserve" y="646.5739" stroke="none">k = n?</text>
        </g>
      </g>
    </g>
    <g id="y.node.5">
      <g text-rendering="geometricPrecision" stroke-miterlimit="1.45" shape-rendering="geometricPrecision" transform="matrix(1,0,0,1,269,-77)" stroke-linecap="butt">
        <path fill="none" d="M45 668.86 L255 668.86 L255 746.86 L45 746.86 Z"/>
      </g>
      <g>
        <g text-rendering="geometricPrecision" stroke-miterlimit="1.45" shape-rendering="geometricPrecision" font-family="sans-serif" transform="matrix(1,0,0,1,269,-77)" stroke-linecap="butt">
          <text x="46.4121" xml:space="preserve" y="705.2233" stroke="none">Выделить "+" все столбцы матрицы, </text>
          <text x="119.7568" xml:space="preserve" y="719.9244" stroke="none">где есть 0*</text>
        </g>
      </g>
    </g>
    <g id="y.node.6">
      <g text-rendering="geometricPrecision" stroke-miterlimit="1.45" shape-rendering="geometricPrecision" transform="matrix(1,0,0,1,269,-77)" stroke-linecap="butt">
        <path fill="none" d="M150 819.8 L255 858.8 L150 897.8 L45 858.8 Z"/>
      </g>
      <g>
        <g text-rendering="geometricPrecision" stroke-miterlimit="1.45" shape-rendering="geometricPrecision" font-family="sans-serif" transform="matrix(1,0,0,1,269,-77)" stroke-linecap="butt">
          <text x="87.041" xml:space="preserve" y="856.1633" stroke="none">Среди невыделенных </text>
          <text x="97.834" xml:space="preserve" y="870.8644" stroke="none">элементов есть 0?</text>
        </g>
      </g>
    </g>
    <g id="y.node.7">
      <g text-rendering="geometricPrecision" stroke-miterlimit="1.45" shape-rendering="geometricPrecision" transform="matrix(1,0,0,1,269,-77)" stroke-linecap="butt">
        <path fill="none" d="M174.6 897.8 L384.6 897.8 L384.6 975.8 L174.6 975.8 Z"/>
      </g>
      <g>
        <g text-rendering="geometricPrecision" stroke-miterlimit="1.45" shape-rendering="geometricPrecision" font-family="sans-serif" transform="matrix(1,0,0,1,269,-77)" stroke-linecap="butt">
          <text x="236.0707" xml:space="preserve" y="941.5139" stroke="none">Отметить его 0'</text>
        </g>
      </g>
    </g>
    <g id="y.node.8">
      <g text-rendering="geometricPrecision" stroke-miterlimit="1.45" shape-rendering="geometricPrecision" transform="matrix(1,0,0,1,269,-77)" stroke-linecap="butt">
        <path fill="none" d="M279.6 1005.8 L384.6 1044.8 L279.6 1083.8 L174.6 1044.8 Z"/>
      </g>
      <g>
        <g text-rendering="geometricPrecision" stroke-miterlimit="1.45" shape-rendering="geometricPrecision" font-family="sans-serif" transform="matrix(1,0,0,1,269,-77)" stroke-linecap="butt">
          <text x="204.9164" xml:space="preserve" y="1042.1633" stroke="none">В одной строке с текущим </text>
          <text x="250.5639" xml:space="preserve" y="1056.8645" stroke="none">0' есть 0*?</text>
        </g>
      </g>
    </g>
    <g id="y.node.9">
      <g text-rendering="geometricPrecision" stroke-miterlimit="1.45" shape-rendering="geometricPrecision" transform="matrix(1,0,0,1,269,-77)" stroke-linecap="butt">
        <path fill="none" d="M315 1083.8 L525 1083.8 L525 1161.8 L315 1161.8 Z"/>
      </g>
      <g>
        <g text-rendering="geometricPrecision" stroke-miterlimit="1.45" shape-rendering="geometricPrecision" font-family="sans-serif" transform="matrix(1,0,0,1,269,-77)" stroke-linecap="butt">
          <text x="322.9482" xml:space="preserve" y="1120.1633" stroke="none">Перенести выделение со столбца </text>
          <text x="322.9482" xml:space="preserve" y="1134.8645" stroke="none">с 0* на строку с 0'</text>
        </g>
      </g>
    </g>
    <g id="y.node.10">
      <g text-rendering="geometricPrecision" stroke-miterlimit="1.45" shape-rendering="geometricPrecision" transform="matrix(1,0,0,1,269,-77)" stroke-linecap="butt">
        <path fill="none" d="M272.44 379 L482.56 379 L482.56 457 L272.44 457 Z"/>
      </g>
      <g>
        <g text-rendering="geometricPrecision" stroke-miterlimit="1.45" shape-rendering="geometricPrecision" font-family="sans-serif" transform="matrix(1,0,0,1,269,-77)" stroke-linecap="butt">
          <text x="277.2461" xml:space="preserve" y="400.6621" stroke="none">Просмотреть матрицу по столбцам </text>
          <text x="274.2432" xml:space="preserve" y="415.3633" stroke="none">сверху вниз в поисках первого нуля, </text>
          <text x="278.7637" xml:space="preserve" y="430.0645" stroke="none">в одной строке с которым не стоит </text>
          <text x="278.3447" xml:space="preserve" y="444.7656" stroke="none">0*. Если найден, то отметить его 0*</text>
        </g>
      </g>
    </g>
    <g id="y.node.11">
      <g/>
    </g>
    <g id="y.node.12">
      <g text-rendering="geometricPrecision" stroke-miterlimit="1.45" shape-rendering="geometricPrecision" transform="matrix(1,0,0,1,269,-77)" stroke-linecap="butt">
        <path fill="none" d="M36.52 1083.8 L246.52 1083.8 L246.52 1161.8 L36.52 1161.8 Z"/>
      </g>
      <g>
        <g text-rendering="geometricPrecision" stroke-miterlimit="1.45" shape-rendering="geometricPrecision" font-family="sans-serif" transform="matrix(1,0,0,1,269,-77)" stroke-linecap="butt">
          <text x="41.9634" xml:space="preserve" y="1105.4622" stroke="none">Построить непродолжаемую </text>
          <text x="41.9634" xml:space="preserve" y="1120.1633" stroke="none">L-цепочку от текущего 0'</text>
          <text x="41.9634" xml:space="preserve" y="1134.8645" stroke="none">0' |--&gt; (по столбцу) 0* |--&gt; </text>
          <text x="41.9634" xml:space="preserve" y="1149.5657" stroke="none">(по строке) 0' |--&gt; (по столбцу) 0* ....</text>
        </g>
      </g>
    </g>
    <g id="y.node.13">
      <g text-rendering="geometricPrecision" stroke-miterlimit="1.45" shape-rendering="geometricPrecision" transform="matrix(1,0,0,1,269,-77)" stroke-linecap="butt">
        <path fill="none" d="M36.52 1181.72 L246.52 1181.72 L246.52 1259.72 L36.52 1259.72 Z"/>
      </g>
      <g>
        <g text-rendering="geometricPrecision" stroke-miterlimit="1.45" shape-rendering="geometricPrecision" font-family="sans-serif" transform="matrix(1,0,0,1,269,-77)" stroke-linecap="butt">
          <text x="52.0327" xml:space="preserve" y="1210.7327" stroke="none">В пределах L-цепочки заменить</text>
          <text x="52.0327" xml:space="preserve" y="1225.4338" stroke="none">0' |--&gt; 0*</text>
          <text x="52.0327" xml:space="preserve" y="1240.135" stroke="none">0*|--&gt; 0'</text>
        </g>
      </g>
    </g>
    <g id="y.node.14">
      <g text-rendering="geometricPrecision" stroke-miterlimit="1.45" shape-rendering="geometricPrecision" transform="matrix(1,0,0,1,269,-77)" stroke-linecap="butt">
        <path fill="none" d="M36.52 1279.64 L246.52 1279.64 L246.52 1357.64 L36.52 1357.64 Z"/>
      </g>
      <g>
        <g text-rendering="geometricPrecision" stroke-miterlimit="1.45" shape-rendering="geometricPrecision" font-family="sans-serif" transform="matrix(1,0,0,1,269,-77)" stroke-linecap="butt">
          <text x="53.3686" xml:space="preserve" y="1323.3539" stroke="none">Снять все выделения, кроме 0*</text>
        </g>
      </g>
    </g>
    <g id="y.node.15">
      <g text-rendering="geometricPrecision" stroke-miterlimit="1.45" shape-rendering="geometricPrecision" transform="matrix(1,0,0,1,269,-77)" stroke-linecap="butt">
        <path fill="none" d="M36.52 1377.5601 L246.52 1377.5601 L246.52 1455.5601 L36.52 1455.5601 Z"/>
      </g>
      <g>
        <g text-rendering="geometricPrecision" stroke-miterlimit="1.45" shape-rendering="geometricPrecision" font-family="sans-serif" transform="matrix(1,0,0,1,269,-77)" stroke-linecap="butt">
          <text x="118.5073" xml:space="preserve" y="1421.2739" stroke="none">k = k + 1</text>
        </g>
      </g>
    </g>
    <g id="y.node.16">
      <g/>
    </g>
    <g id="y.node.17">
      <g text-rendering="geometricPrecision" stroke-miterlimit="1.45" shape-rendering="geometricPrecision" transform="matrix(1,0,0,1,269,-77)" stroke-linecap="butt">
        <path fill="none" d="M-203.48 897.8 L6.52 897.8 L6.52 975.8 L-203.48 975.8 Z"/>
      </g>
      <g>
        <g text-rendering="geometricPrecision" stroke-miterlimit="1.45" shape-rendering="geometricPrecision" font-family="sans-serif" transform="matrix(1,0,0,1,269,-77)" stroke-linecap="butt">
          <text x="-172.9527" xml:space="preserve" y="934.1633" stroke="none">h = минимальный элемент</text>
          <text x="-172.9527" xml:space="preserve" y="948.8644" stroke="none"> из невыделнных</text>
        </g>
      </g>
    </g>
    <g id="y.node.18">
      <g text-rendering="geometricPrecision" stroke-miterlimit="1.45" shape-rendering="geometricPrecision" transform="matrix(1,0,0,1,269,-77)" stroke-linecap="butt">
        <path fill="none" d="M-203.48 1005.8 L6.52 1005.8 L6.52 1083.8 L-203.48 1083.8 Z"/>
      </g>
      <g>
        <g text-rendering="geometricPrecision" stroke-miterlimit="1.45" shape-rendering="geometricPrecision" font-family="sans-serif" transform="matrix(1,0,0,1,269,-77)" stroke-linecap="butt">
          <text x="-167.896" xml:space="preserve" y="1042.1633" stroke="none">Вычесть h из </text>
          <text x="-167.896" xml:space="preserve" y="1056.8645" stroke="none">невыделенных столбцов</text>
        </g>
      </g>
    </g>
    <g id="y.node.19">
      <g text-rendering="geometricPrecision" stroke-miterlimit="1.45" shape-rendering="geometricPrecision" transform="matrix(1,0,0,1,269,-77)" stroke-linecap="butt">
        <path fill="none" d="M-203.48 1119.14 L6.52 1119.14 L6.52 1197.14 L-203.48 1197.14 Z"/>
      </g>
      <g>
        <g text-rendering="geometricPrecision" stroke-miterlimit="1.45" shape-rendering="geometricPrecision" font-family="sans-serif" transform="matrix(1,0,0,1,269,-77)" stroke-linecap="butt">
          <text x="-200.0464" xml:space="preserve" y="1162.8539" stroke="none">Прибавить h к выделенным строкам</text>
        </g>
      </g>
    </g>
    <g id="y.node.20">
      <g/>
    </g>
    <g id="y.node.21">
      <a target="_blank" xlink:type="simple" xlink:href="C:\Users\bryan\Downloads\CodeCogsEqn.svg" xlink:show="new">
        <g text-rendering="geometricPrecision" stroke-miterlimit="1.45" shape-rendering="geometricPrecision" transform="matrix(1,0,0,1,269,-77)" stroke-linecap="butt">
          <path fill="none" d="M566.6 668.86 L776.6 668.86 L776.6 746.86 L566.6 746.86 Z"/>
        </g>
        <g>
          <g text-rendering="geometricPrecision" stroke-miterlimit="1.45" shape-rendering="geometricPrecision" font-family="sans-serif" transform="matrix(1,0,0,1,269,-77)" stroke-linecap="butt">
            <text x="586.5892" xml:space="preserve" y="683.1715" stroke="none">Записать opt решение задачи:</text>
            <text x="669.933" xml:space="preserve" y="697.8727" stroke="none"> </text>
            <text x="669.933" xml:space="preserve" y="712.5739" stroke="none"> </text>
            <text x="593.2074" xml:space="preserve" y="727.275" stroke="none">если в позиции (i, j) стоит 0*</text>
            <text x="650.1312" xml:space="preserve" y="741.9762" stroke="none">иначе 0</text>
          </g>
        </g>
      </a>
    </g>
    <g id="y.node.22">
      <g text-rendering="geometricPrecision" shape-rendering="geometricPrecision" transform="matrix(0.8522,0,0,0.7577,858.0826,613.4449)">
        <g>
          <svg opacity="1" writing-mode="lr-tb" stop-color="rgb(0, 0, 0)" shape-rendering="auto" glyph-orientation-horizontal="0deg" color-profile="auto" lighting-color="rgb(255, 255, 255)" color="rgb(0, 0, 0)" font-weight="400" alignment-baseline="auto" font-style="normal" version="1.1" color-interpolation-filters="linearrgb" text-anchor="start" stroke-linecap="butt" color-interpolation="srgb" font-variant="normal" word-spacing="normal" fill-opacity="1" text-rendering="auto" clip-path="none" text-decoration="none" letter-spacing="normal" viewBox="-.239051 -.233505 44.309556 17.332681" glyph-orientation-vertical="auto" display="inline" font-size-adjust="none" fill="rgb(0, 0, 0)" overflow="hidden" font-stretch="normal" stroke-dasharray="none" stroke-miterlimit="4" stop-opacity="1" color-rendering="auto" font-size="12" mask="none" direction="ltr" baseline-shift="baseline" pointer-events="visiblepainted" enable-background="accumulate" fill-rule="nonzero" image-rendering="auto" stroke-dashoffset="0" width="44.309556pt" marker-end="none" clip="auto" cursor="auto" stroke="none" filter="none" visibility="visible" kerning="auto" stroke-width="1" font-family="&quot;Arial&quot;,&quot;Helvetica&quot;,sans-serif" flood-opacity="1" clip-rule="nonzero" src="none" height="17.332681pt" unicode-bidi="normal" stroke-linejoin="miter" stroke-opacity="1" flood-color="rgb(0, 0, 0)" dominant-baseline="auto" marker-start="none" marker-mid="none">
            
            <defs>
              
              <path id="svg1.g2-49" d="M3.443088-7.663263C3.443088-7.938232 3.443088-7.950187 3.203985-7.950187C2.917061-7.627397 2.319303-7.185056 1.08792-7.185056V-6.838356C1.362889-6.838356 1.960648-6.838356 2.618182-7.149191V-.920548C2.618182-.490162 2.582316-.3467 1.530262-.3467H1.159651V0C1.482441-.02391 2.642092-.02391 3.036613-.02391S4.578829-.02391 4.901619 0V-.3467H4.531009C3.478954-.3467 3.443088-.490162 3.443088-.920548V-7.663263Z"/>
              
              <path id="svg1.g2-61" d="M8.069738-3.873474C8.237111-3.873474 8.452304-3.873474 8.452304-4.088667C8.452304-4.315816 8.249066-4.315816 8.069738-4.315816H1.028144C.860772-4.315816 .645579-4.315816 .645579-4.100623C.645579-3.873474 .848817-3.873474 1.028144-3.873474H8.069738ZM8.069738-1.649813C8.237111-1.649813 8.452304-1.649813 8.452304-1.865006C8.452304-2.092154 8.249066-2.092154 8.069738-2.092154H1.028144C.860772-2.092154 .645579-2.092154 .645579-1.876961C.645579-1.649813 .848817-1.649813 1.028144-1.649813H8.069738Z"/>
              
              <path id="svg1.g0-105" d="M2.375093-4.97335C2.375093-5.148692 2.247572-5.276214 2.064259-5.276214C1.857036-5.276214 1.625903-5.084932 1.625903-4.845828C1.625903-4.670486 1.753425-4.542964 1.936737-4.542964C2.14396-4.542964 2.375093-4.734247 2.375093-4.97335ZM1.211457-2.048319L.781071-.948443C.74122-.828892 .70137-.73325 .70137-.597758C.70137-.207223 1.004234 .079701 1.42665 .079701C2.199751 .079701 2.526526-1.036115 2.526526-1.139726C2.526526-1.219427 2.462765-1.243337 2.406974-1.243337C2.311333-1.243337 2.295392-1.187547 2.271482-1.107846C2.088169-.470237 1.761395-.143462 1.44259-.143462C1.346949-.143462 1.251308-.183313 1.251308-.398506C1.251308-.589788 1.307098-.73325 1.41071-.980324C1.490411-1.195517 1.570112-1.41071 1.657783-1.625903L1.904857-2.271482C1.976588-2.454795 2.072229-2.701868 2.072229-2.83736C2.072229-3.235866 1.753425-3.514819 1.346949-3.514819C.573848-3.514819 .239103-2.399004 .239103-2.295392C.239103-2.223661 .294894-2.191781 .358655-2.191781C.462267-2.191781 .470237-2.239601 .494147-2.319303C.71731-3.076463 1.083935-3.291656 1.323039-3.291656C1.43462-3.291656 1.514321-3.251806 1.514321-3.028643C1.514321-2.948941 1.506351-2.83736 1.42665-2.598257L1.211457-2.048319Z"/>
              
              <path id="svg1.g0-106" d="M3.291656-4.97335C3.291656-5.124782 3.172105-5.276214 2.980822-5.276214C2.741719-5.276214 2.534496-5.053051 2.534496-4.845828C2.534496-4.694396 2.654047-4.542964 2.84533-4.542964C3.084433-4.542964 3.291656-4.766127 3.291656-4.97335ZM1.625903 .398506C1.506351 .884682 1.115816 1.40274 .629639 1.40274C.502117 1.40274 .382565 1.370859 .366625 1.362889C.613699 1.243337 .645579 1.028144 .645579 .956413C.645579 .765131 .502117 .661519 .334745 .661519C.103611 .661519-.111582 .860772-.111582 1.123786C-.111582 1.42665 .183313 1.625903 .637609 1.625903C1.123786 1.625903 2.000498 1.323039 2.239601 .366625L2.956912-2.486675C2.980822-2.582316 2.996762-2.646077 2.996762-2.765629C2.996762-3.203985 2.646077-3.514819 2.183811-3.514819C1.338979-3.514819 .844832-2.399004 .844832-2.295392C.844832-2.223661 .900623-2.191781 .964384-2.191781C1.052055-2.191781 1.060025-2.215691 1.115816-2.335243C1.354919-2.885181 1.761395-3.291656 2.1599-3.291656C2.327273-3.291656 2.422914-3.180075 2.422914-2.917061C2.422914-2.805479 2.399004-2.693898 2.375093-2.582316L1.625903 .398506Z"/>
              
              <path id="svg1.g0-111" d="M3.969116-2.13599C3.969116-2.917061 3.411208-3.514819 2.582316-3.514819C1.45056-3.514819 .350685-2.414944 .350685-1.299128C.350685-.486177 .924533 .079701 1.737484 .079701C2.87721 .079701 3.969116-1.036115 3.969116-2.13599ZM1.745455-.143462C1.466501-.143462 .996264-.286924 .996264-1.020174C.996264-1.346949 1.147696-2.207721 1.530262-2.701868C1.920797-3.203985 2.359153-3.291656 2.574346-3.291656C2.901121-3.291656 3.323537-3.092403 3.323537-2.422914C3.323537-2.10411 3.180075-1.346949 2.87721-.868742C2.582316-.414446 2.14396-.143462 1.745455-.143462Z"/>
              
              <path id="svg1.g0-112" d="M.414446 .964384C.350685 1.219427 .334745 1.283188 .01594 1.283188C-.095641 1.283188-.191283 1.283188-.191283 1.43462C-.191283 1.506351-.119552 1.546202-.079701 1.546202C0 1.546202 .03188 1.522291 .621669 1.522291C1.195517 1.522291 1.362889 1.546202 1.41868 1.546202C1.45056 1.546202 1.570112 1.546202 1.570112 1.39477C1.570112 1.283188 1.458531 1.283188 1.362889 1.283188C.980324 1.283188 .980324 1.235367 .980324 1.163636C.980324 1.107846 1.123786 .541968 1.362889-.390535C1.466501-.207223 1.713574 .079701 2.14396 .079701C3.124284 .079701 4.144458-1.052055 4.144458-2.207721C4.144458-2.996762 3.634371-3.514819 2.996762-3.514819C2.518555-3.514819 2.13599-3.188045 1.904857-2.948941C1.737484-3.514819 1.203487-3.514819 1.123786-3.514819C.836862-3.514819 .637609-3.331507 .510087-3.084433C.326775-2.725778 .239103-2.319303 .239103-2.295392C.239103-2.223661 .294894-2.191781 .358655-2.191781C.462267-2.191781 .470237-2.223661 .526027-2.430884C.629639-2.83736 .773101-3.291656 1.099875-3.291656C1.299128-3.291656 1.354919-3.108344 1.354919-2.917061C1.354919-2.83736 1.323039-2.646077 1.307098-2.582316L.414446 .964384ZM1.880946-2.454795C1.920797-2.590286 1.920797-2.606227 2.040349-2.749689C2.343213-3.108344 2.685928-3.291656 2.972852-3.291656C3.371357-3.291656 3.52279-2.901121 3.52279-2.542466C3.52279-2.247572 3.347447-1.39477 3.108344-.924533C2.901121-.494147 2.518555-.143462 2.14396-.143462C1.601993-.143462 1.474471-.765131 1.474471-.820922C1.474471-.836862 1.490411-.924533 1.498381-.948443L1.880946-2.454795Z"/>
              
              <path id="svg1.g0-116" d="M1.761395-3.172105H2.542466C2.693898-3.172105 2.789539-3.172105 2.789539-3.323537C2.789539-3.435118 2.685928-3.435118 2.550436-3.435118H1.825156L2.11208-4.566874C2.14396-4.686426 2.14396-4.726276 2.14396-4.734247C2.14396-4.901619 2.016438-4.98132 1.880946-4.98132C1.609963-4.98132 1.554172-4.766127 1.466501-4.407472L1.219427-3.435118H.454296C.302864-3.435118 .199253-3.435118 .199253-3.283686C.199253-3.172105 .302864-3.172105 .438356-3.172105H1.155666L.67746-1.259278C.629639-1.060025 .557908-.781071 .557908-.669489C.557908-.191283 .948443 .079701 1.370859 .079701C2.223661 .079701 2.709838-1.044085 2.709838-1.139726C2.709838-1.227397 2.638107-1.243337 2.590286-1.243337C2.502615-1.243337 2.494645-1.211457 2.438854-1.091905C2.279452-.70934 1.880946-.143462 1.39477-.143462C1.227397-.143462 1.131756-.255044 1.131756-.518057C1.131756-.669489 1.155666-.757161 1.179577-.860772L1.761395-3.172105Z"/>
              
              <path id="svg1.g1-120" d="M5.66675-4.877709C5.284184-4.805978 5.140722-4.519054 5.140722-4.291905C5.140722-4.004981 5.36787-3.90934 5.535243-3.90934C5.893898-3.90934 6.144956-4.220174 6.144956-4.542964C6.144956-5.045081 5.571108-5.272229 5.068991-5.272229C4.339726-5.272229 3.93325-4.554919 3.825654-4.327771C3.550685-5.224408 2.809465-5.272229 2.594271-5.272229C1.374844-5.272229 .729265-3.706102 .729265-3.443088C.729265-3.395268 .777086-3.335492 .860772-3.335492C.956413-3.335492 .980324-3.407223 1.004234-3.455044C1.41071-4.782067 2.211706-5.033126 2.558406-5.033126C3.096389-5.033126 3.203985-4.531009 3.203985-4.244085C3.203985-3.981071 3.132254-3.706102 2.988792-3.132254L2.582316-1.494396C2.402989-.777086 2.056289-.119552 1.422665-.119552C1.362889-.119552 1.06401-.119552 .812951-.274969C1.243337-.358655 1.338979-.71731 1.338979-.860772C1.338979-1.099875 1.159651-1.243337 .932503-1.243337C.645579-1.243337 .334745-.992279 .334745-.609714C.334745-.107597 .896638 .119552 1.41071 .119552C1.984558 .119552 2.391034-.334745 2.642092-.824907C2.833375-.119552 3.431133 .119552 3.873474 .119552C5.092902 .119552 5.738481-1.446575 5.738481-1.709589C5.738481-1.769365 5.69066-1.817186 5.618929-1.817186C5.511333-1.817186 5.499377-1.75741 5.463512-1.661768C5.140722-.609714 4.447323-.119552 3.90934-.119552C3.490909-.119552 3.263761-.430386 3.263761-.920548C3.263761-1.183562 3.311582-1.374844 3.502864-2.163885L3.921295-3.789788C4.100623-4.507098 4.507098-5.033126 5.057036-5.033126C5.080946-5.033126 5.415691-5.033126 5.66675-4.877709Z"/>
              
              <clipPath clipPathUnits="userSpaceOnUse" id="clipPath1">
                <path d="M0 0 L1064 0 L1064 1411 L0 1411 L0 0 Z"/>
              </clipPath>
              <clipPath clipPathUnits="userSpaceOnUse" id="clipPath2">
                <path d="M-269 77 L795 77 L795 1488 L-269 1488 L-269 77 Z"/>
              </clipPath>
            </defs>
            
            <g id="svg1.page1" transform="matrix(1.13 0 0 1.13 -63.986043 -62.501573)">
              
              <use x="56.413267" y="65.753425" xlink:href="#svg1.g1-120"/>
              
              <use x="63.065354" y="60.085805" xlink:href="#svg1.g0-111"/>
              
              <use x="67.158404" y="60.085805" xlink:href="#svg1.g0-112"/>
              
              <use x="71.421181" y="60.085805" xlink:href="#svg1.g0-116"/>
              
              <use x="63.065354" y="68.817237" xlink:href="#svg1.g0-105"/>
              
              <use x="65.948494" y="68.817237" xlink:href="#svg1.g0-106"/>
              
              <use x="78.298164" y="65.753425" xlink:href="#svg1.g2-61"/>
              
              <use x="90.723644" y="65.753425" xlink:href="#svg1.g2-49"/>
              
            </g>
            
          </svg>
        </g>
      </g>
      <g/>
    </g>
    <g id="y.node.23">
      <a target="_blank" xlink:type="simple" xlink:href="C:\Users\bryan\Downloads\CodeCogsEqn.svg" xlink:show="new">
        <g text-rendering="geometricPrecision" stroke-miterlimit="1.45" shape-rendering="geometricPrecision" transform="matrix(1,0,0,1,269,-77)" stroke-linecap="butt">
          <path fill="none" d="M566.6 776.86 L776.6 776.86 L776.6 854.86 L566.6 854.86 Z"/>
        </g>
        <g/>
      </a>
    </g>
    <g id="y.node.24">
      <g text-rendering="geometricPrecision" shape-rendering="geometricPrecision" transform="matrix(1,0,0,1,889.6956,729.5896)">
        <g>
          <svg opacity="1" writing-mode="lr-tb" stop-color="rgb(0, 0, 0)" shape-rendering="auto" glyph-orientation-horizontal="0deg" color-profile="auto" lighting-color="rgb(255, 255, 255)" color="rgb(0, 0, 0)" font-weight="400" alignment-baseline="auto" font-style="normal" version="1.1" color-interpolation-filters="linearrgb" text-anchor="start" stroke-linecap="butt" color-interpolation="srgb" font-variant="normal" word-spacing="normal" fill-opacity="1" text-rendering="auto" clip-path="none" text-decoration="none" letter-spacing="normal" viewBox="-.239051 -.240635 75.667586 13.9056" glyph-orientation-vertical="auto" display="inline" font-size-adjust="none" fill="rgb(0, 0, 0)" overflow="hidden" font-stretch="normal" stroke-dasharray="none" stroke-miterlimit="4" stop-opacity="1" color-rendering="auto" font-size="12" mask="none" direction="ltr" baseline-shift="baseline" pointer-events="visiblepainted" enable-background="accumulate" fill-rule="nonzero" image-rendering="auto" stroke-dashoffset="0" width="75.667586pt" marker-end="none" clip="auto" cursor="auto" stroke="none" filter="none" visibility="visible" kerning="auto" stroke-width="1" font-family="&quot;Arial&quot;,&quot;Helvetica&quot;,sans-serif" flood-opacity="1" clip-rule="nonzero" src="none" height="13.9056pt" unicode-bidi="normal" stroke-linejoin="miter" stroke-opacity="1" flood-color="rgb(0, 0, 0)" dominant-baseline="auto" marker-start="none" marker-mid="none">
            
            <defs>
              
              <path id="svg2.g2-40" d="M3.88543 2.905106C3.88543 2.86924 3.88543 2.84533 3.682192 2.642092C2.486675 1.43462 1.817186-.537983 1.817186-2.976837C1.817186-5.296139 2.379078-7.292653 3.765878-8.703362C3.88543-8.810959 3.88543-8.834869 3.88543-8.870735C3.88543-8.942466 3.825654-8.966376 3.777833-8.966376C3.622416-8.966376 2.642092-8.105604 2.056289-6.933998C1.446575-5.726526 1.171606-4.447323 1.171606-2.976837C1.171606-1.912827 1.338979-.490162 1.960648 .789041C2.666002 2.223661 3.646326 3.000747 3.777833 3.000747C3.825654 3.000747 3.88543 2.976837 3.88543 2.905106Z"/>
              
              <path id="svg2.g2-41" d="M3.371357-2.976837C3.371357-3.88543 3.251806-5.36787 2.582316-6.75467C1.876961-8.18929 .896638-8.966376 .765131-8.966376C.71731-8.966376 .657534-8.942466 .657534-8.870735C.657534-8.834869 .657534-8.810959 .860772-8.607721C2.056289-7.400249 2.725778-5.427646 2.725778-2.988792C2.725778-.669489 2.163885 1.327024 .777086 2.737733C.657534 2.84533 .657534 2.86924 .657534 2.905106C.657534 2.976837 .71731 3.000747 .765131 3.000747C.920548 3.000747 1.900872 2.139975 2.486675 .968369C3.096389-.251059 3.371357-1.542217 3.371357-2.976837Z"/>
              
              <path id="svg2.g2-61" d="M8.069738-3.873474C8.237111-3.873474 8.452304-3.873474 8.452304-4.088667C8.452304-4.315816 8.249066-4.315816 8.069738-4.315816H1.028144C.860772-4.315816 .645579-4.315816 .645579-4.100623C.645579-3.873474 .848817-3.873474 1.028144-3.873474H8.069738ZM8.069738-1.649813C8.237111-1.649813 8.452304-1.649813 8.452304-1.865006C8.452304-2.092154 8.249066-2.092154 8.069738-2.092154H1.028144C.860772-2.092154 .645579-2.092154 .645579-1.876961C.645579-1.649813 .848817-1.649813 1.028144-1.649813H8.069738Z"/>
              
              <path id="svg2.g0-111" d="M3.969116-2.13599C3.969116-2.917061 3.411208-3.514819 2.582316-3.514819C1.45056-3.514819 .350685-2.414944 .350685-1.299128C.350685-.486177 .924533 .079701 1.737484 .079701C2.87721 .079701 3.969116-1.036115 3.969116-2.13599ZM1.745455-.143462C1.466501-.143462 .996264-.286924 .996264-1.020174C.996264-1.346949 1.147696-2.207721 1.530262-2.701868C1.920797-3.203985 2.359153-3.291656 2.574346-3.291656C2.901121-3.291656 3.323537-3.092403 3.323537-2.422914C3.323537-2.10411 3.180075-1.346949 2.87721-.868742C2.582316-.414446 2.14396-.143462 1.745455-.143462Z"/>
              
              <path id="svg2.g0-112" d="M.414446 .964384C.350685 1.219427 .334745 1.283188 .01594 1.283188C-.095641 1.283188-.191283 1.283188-.191283 1.43462C-.191283 1.506351-.119552 1.546202-.079701 1.546202C0 1.546202 .03188 1.522291 .621669 1.522291C1.195517 1.522291 1.362889 1.546202 1.41868 1.546202C1.45056 1.546202 1.570112 1.546202 1.570112 1.39477C1.570112 1.283188 1.458531 1.283188 1.362889 1.283188C.980324 1.283188 .980324 1.235367 .980324 1.163636C.980324 1.107846 1.123786 .541968 1.362889-.390535C1.466501-.207223 1.713574 .079701 2.14396 .079701C3.124284 .079701 4.144458-1.052055 4.144458-2.207721C4.144458-2.996762 3.634371-3.514819 2.996762-3.514819C2.518555-3.514819 2.13599-3.188045 1.904857-2.948941C1.737484-3.514819 1.203487-3.514819 1.123786-3.514819C.836862-3.514819 .637609-3.331507 .510087-3.084433C.326775-2.725778 .239103-2.319303 .239103-2.295392C.239103-2.223661 .294894-2.191781 .358655-2.191781C.462267-2.191781 .470237-2.223661 .526027-2.430884C.629639-2.83736 .773101-3.291656 1.099875-3.291656C1.299128-3.291656 1.354919-3.108344 1.354919-2.917061C1.354919-2.83736 1.323039-2.646077 1.307098-2.582316L.414446 .964384ZM1.880946-2.454795C1.920797-2.590286 1.920797-2.606227 2.040349-2.749689C2.343213-3.108344 2.685928-3.291656 2.972852-3.291656C3.371357-3.291656 3.52279-2.901121 3.52279-2.542466C3.52279-2.247572 3.347447-1.39477 3.108344-.924533C2.901121-.494147 2.518555-.143462 2.14396-.143462C1.601993-.143462 1.474471-.765131 1.474471-.820922C1.474471-.836862 1.490411-.924533 1.498381-.948443L1.880946-2.454795Z"/>
              
              <path id="svg2.g0-116" d="M1.761395-3.172105H2.542466C2.693898-3.172105 2.789539-3.172105 2.789539-3.323537C2.789539-3.435118 2.685928-3.435118 2.550436-3.435118H1.825156L2.11208-4.566874C2.14396-4.686426 2.14396-4.726276 2.14396-4.734247C2.14396-4.901619 2.016438-4.98132 1.880946-4.98132C1.609963-4.98132 1.554172-4.766127 1.466501-4.407472L1.219427-3.435118H.454296C.302864-3.435118 .199253-3.435118 .199253-3.283686C.199253-3.172105 .302864-3.172105 .438356-3.172105H1.155666L.67746-1.259278C.629639-1.060025 .557908-.781071 .557908-.669489C.557908-.191283 .948443 .079701 1.370859 .079701C2.223661 .079701 2.709838-1.044085 2.709838-1.139726C2.709838-1.227397 2.638107-1.243337 2.590286-1.243337C2.502615-1.243337 2.494645-1.211457 2.438854-1.091905C2.279452-.70934 1.880946-.143462 1.39477-.143462C1.227397-.143462 1.131756-.255044 1.131756-.518057C1.131756-.669489 1.155666-.757161 1.179577-.860772L1.761395-3.172105Z"/>
              
              <path id="svg2.g1-102" d="M5.332005-4.805978C5.571108-4.805978 5.66675-4.805978 5.66675-5.033126C5.66675-5.152677 5.571108-5.152677 5.355915-5.152677H4.387547C4.614695-6.38406 4.782067-7.232877 4.877709-7.615442C4.94944-7.902366 5.200498-8.177335 5.511333-8.177335C5.762391-8.177335 6.01345-8.069738 6.133001-7.962142C5.66675-7.914321 5.523288-7.567621 5.523288-7.364384C5.523288-7.12528 5.702615-6.981818 5.929763-6.981818C6.168867-6.981818 6.527522-7.185056 6.527522-7.639352C6.527522-8.141469 6.025405-8.416438 5.499377-8.416438C4.985305-8.416438 4.483188-8.033873 4.244085-7.567621C4.028892-7.149191 3.90934-6.718804 3.634371-5.152677H2.833375C2.606227-5.152677 2.486675-5.152677 2.486675-4.937484C2.486675-4.805978 2.558406-4.805978 2.797509-4.805978H3.56264C3.347447-3.694147 2.857285-.992279 2.582316 .286924C2.379078 1.327024 2.199751 2.199751 1.601993 2.199751C1.566127 2.199751 1.219427 2.199751 1.004234 1.972603C1.613948 1.924782 1.613948 1.398755 1.613948 1.3868C1.613948 1.147696 1.43462 1.004234 1.207472 1.004234C.968369 1.004234 .609714 1.207472 .609714 1.661768C.609714 2.175841 1.135741 2.438854 1.601993 2.438854C2.82142 2.438854 3.323537 .251059 3.455044-.3467C3.670237-1.267248 4.25604-4.447323 4.315816-4.805978H5.332005Z"/>
              
              <path id="svg2.g1-120" d="M5.66675-4.877709C5.284184-4.805978 5.140722-4.519054 5.140722-4.291905C5.140722-4.004981 5.36787-3.90934 5.535243-3.90934C5.893898-3.90934 6.144956-4.220174 6.144956-4.542964C6.144956-5.045081 5.571108-5.272229 5.068991-5.272229C4.339726-5.272229 3.93325-4.554919 3.825654-4.327771C3.550685-5.224408 2.809465-5.272229 2.594271-5.272229C1.374844-5.272229 .729265-3.706102 .729265-3.443088C.729265-3.395268 .777086-3.335492 .860772-3.335492C.956413-3.335492 .980324-3.407223 1.004234-3.455044C1.41071-4.782067 2.211706-5.033126 2.558406-5.033126C3.096389-5.033126 3.203985-4.531009 3.203985-4.244085C3.203985-3.981071 3.132254-3.706102 2.988792-3.132254L2.582316-1.494396C2.402989-.777086 2.056289-.119552 1.422665-.119552C1.362889-.119552 1.06401-.119552 .812951-.274969C1.243337-.358655 1.338979-.71731 1.338979-.860772C1.338979-1.099875 1.159651-1.243337 .932503-1.243337C.645579-1.243337 .334745-.992279 .334745-.609714C.334745-.107597 .896638 .119552 1.41071 .119552C1.984558 .119552 2.391034-.334745 2.642092-.824907C2.833375-.119552 3.431133 .119552 3.873474 .119552C5.092902 .119552 5.738481-1.446575 5.738481-1.709589C5.738481-1.769365 5.69066-1.817186 5.618929-1.817186C5.511333-1.817186 5.499377-1.75741 5.463512-1.661768C5.140722-.609714 4.447323-.119552 3.90934-.119552C3.490909-.119552 3.263761-.430386 3.263761-.920548C3.263761-1.183562 3.311582-1.374844 3.502864-2.163885L3.921295-3.789788C4.100623-4.507098 4.507098-5.033126 5.057036-5.033126C5.080946-5.033126 5.415691-5.033126 5.66675-4.877709Z"/>
              
            </defs>
            
            <g id="svg2.page1" transform="matrix(1.13 0 0 1.13 -63.986043 -64.41)">
              
              <use x="56.413267" y="65.753425" xlink:href="#svg2.g1-102"/>
              
              <use x="62.183256" y="67.546688" xlink:href="#svg2.g0-111"/>
              
              <use x="66.276305" y="67.546688" xlink:href="#svg2.g0-112"/>
              
              <use x="70.539083" y="67.546688" xlink:href="#svg2.g0-116"/>
              
              <use x="77.416065" y="65.753425" xlink:href="#svg2.g2-61"/>
              
              <use x="89.841546" y="65.753425" xlink:href="#svg2.g1-102"/>
              
              <use x="96.887982" y="65.753425" xlink:href="#svg2.g2-40"/>
              
              <use x="101.440308" y="65.753425" xlink:href="#svg2.g1-120"/>
              
              <use x="108.092395" y="67.546688" xlink:href="#svg2.g0-111"/>
              
              <use x="112.185445" y="67.546688" xlink:href="#svg2.g0-112"/>
              
              <use x="116.448222" y="67.546688" xlink:href="#svg2.g0-116"/>
              
              <use x="120.004375" y="65.753425" xlink:href="#svg2.g2-41"/>
              
            </g>
            
          </svg>
        </g>
      </g>
      <g/>
    </g>
    <g id="y.node.25">
      <g text-rendering="geometricPrecision" stroke-miterlimit="1.45" shape-rendering="geometricPrecision" transform="matrix(1,0,0,1,269,-77)" stroke-linecap="butt">
        <path fill="none" d="M593.09 884.86 L776.6 884.86 L756.71 962.86 L573.2 962.86 Z"/>
      </g>
      <g/>
    </g>
    <g id="y.node.26">
      <g text-rendering="geometricPrecision" shape-rendering="geometricPrecision" transform="matrix(1,0,0,1,912.9694,838.0039)">
        <g>
          <svg opacity="1" writing-mode="lr-tb" stop-color="rgb(0, 0, 0)" shape-rendering="auto" glyph-orientation-horizontal="0deg" color-profile="auto" lighting-color="rgb(255, 255, 255)" color="rgb(0, 0, 0)" font-weight="400" alignment-baseline="auto" font-style="normal" version="1.1" color-interpolation-filters="linearrgb" text-anchor="start" stroke-linecap="butt" color-interpolation="srgb" font-variant="normal" word-spacing="normal" fill-opacity="1" text-rendering="auto" clip-path="none" text-decoration="none" letter-spacing="normal" viewBox="-.239051 -.242965 46.017646 13.284171" glyph-orientation-vertical="auto" display="inline" font-size-adjust="none" fill="rgb(0, 0, 0)" overflow="hidden" font-stretch="normal" stroke-dasharray="none" stroke-miterlimit="4" stop-opacity="1" color-rendering="auto" font-size="12" mask="none" direction="ltr" baseline-shift="baseline" pointer-events="visiblepainted" enable-background="accumulate" fill-rule="nonzero" image-rendering="auto" stroke-dashoffset="0" width="46.017646pt" marker-end="none" clip="auto" cursor="auto" stroke="none" filter="none" visibility="visible" kerning="auto" stroke-width="1" font-family="&quot;Arial&quot;,&quot;Helvetica&quot;,sans-serif" flood-opacity="1" clip-rule="nonzero" src="none" height="13.284171pt" unicode-bidi="normal" stroke-linejoin="miter" stroke-opacity="1" flood-color="rgb(0, 0, 0)" dominant-baseline="auto" marker-start="none" marker-mid="none">
            
            <defs>
              
              <path id="svg3.g0-111" d="M3.969116-2.13599C3.969116-2.917061 3.411208-3.514819 2.582316-3.514819C1.45056-3.514819 .350685-2.414944 .350685-1.299128C.350685-.486177 .924533 .079701 1.737484 .079701C2.87721 .079701 3.969116-1.036115 3.969116-2.13599ZM1.745455-.143462C1.466501-.143462 .996264-.286924 .996264-1.020174C.996264-1.346949 1.147696-2.207721 1.530262-2.701868C1.920797-3.203985 2.359153-3.291656 2.574346-3.291656C2.901121-3.291656 3.323537-3.092403 3.323537-2.422914C3.323537-2.10411 3.180075-1.346949 2.87721-.868742C2.582316-.414446 2.14396-.143462 1.745455-.143462Z"/>
              
              <path id="svg3.g0-112" d="M.414446 .964384C.350685 1.219427 .334745 1.283188 .01594 1.283188C-.095641 1.283188-.191283 1.283188-.191283 1.43462C-.191283 1.506351-.119552 1.546202-.079701 1.546202C0 1.546202 .03188 1.522291 .621669 1.522291C1.195517 1.522291 1.362889 1.546202 1.41868 1.546202C1.45056 1.546202 1.570112 1.546202 1.570112 1.39477C1.570112 1.283188 1.458531 1.283188 1.362889 1.283188C.980324 1.283188 .980324 1.235367 .980324 1.163636C.980324 1.107846 1.123786 .541968 1.362889-.390535C1.466501-.207223 1.713574 .079701 2.14396 .079701C3.124284 .079701 4.144458-1.052055 4.144458-2.207721C4.144458-2.996762 3.634371-3.514819 2.996762-3.514819C2.518555-3.514819 2.13599-3.188045 1.904857-2.948941C1.737484-3.514819 1.203487-3.514819 1.123786-3.514819C.836862-3.514819 .637609-3.331507 .510087-3.084433C.326775-2.725778 .239103-2.319303 .239103-2.295392C.239103-2.223661 .294894-2.191781 .358655-2.191781C.462267-2.191781 .470237-2.223661 .526027-2.430884C.629639-2.83736 .773101-3.291656 1.099875-3.291656C1.299128-3.291656 1.354919-3.108344 1.354919-2.917061C1.354919-2.83736 1.323039-2.646077 1.307098-2.582316L.414446 .964384ZM1.880946-2.454795C1.920797-2.590286 1.920797-2.606227 2.040349-2.749689C2.343213-3.108344 2.685928-3.291656 2.972852-3.291656C3.371357-3.291656 3.52279-2.901121 3.52279-2.542466C3.52279-2.247572 3.347447-1.39477 3.108344-.924533C2.901121-.494147 2.518555-.143462 2.14396-.143462C1.601993-.143462 1.474471-.765131 1.474471-.820922C1.474471-.836862 1.490411-.924533 1.498381-.948443L1.880946-2.454795Z"/>
              
              <path id="svg3.g0-116" d="M1.761395-3.172105H2.542466C2.693898-3.172105 2.789539-3.172105 2.789539-3.323537C2.789539-3.435118 2.685928-3.435118 2.550436-3.435118H1.825156L2.11208-4.566874C2.14396-4.686426 2.14396-4.726276 2.14396-4.734247C2.14396-4.901619 2.016438-4.98132 1.880946-4.98132C1.609963-4.98132 1.554172-4.766127 1.466501-4.407472L1.219427-3.435118H.454296C.302864-3.435118 .199253-3.435118 .199253-3.283686C.199253-3.172105 .302864-3.172105 .438356-3.172105H1.155666L.67746-1.259278C.629639-1.060025 .557908-.781071 .557908-.669489C.557908-.191283 .948443 .079701 1.370859 .079701C2.223661 .079701 2.709838-1.044085 2.709838-1.139726C2.709838-1.227397 2.638107-1.243337 2.590286-1.243337C2.502615-1.243337 2.494645-1.211457 2.438854-1.091905C2.279452-.70934 1.880946-.143462 1.39477-.143462C1.227397-.143462 1.131756-.255044 1.131756-.518057C1.131756-.669489 1.155666-.757161 1.179577-.860772L1.761395-3.172105Z"/>
              
              <path id="svg3.g1-59" d="M2.331258 .047821C2.331258-.645579 2.10411-1.159651 1.613948-1.159651C1.231382-1.159651 1.0401-.848817 1.0401-.585803S1.219427 0 1.625903 0C1.78132 0 1.912827-.047821 2.020423-.155417C2.044334-.179328 2.056289-.179328 2.068244-.179328C2.092154-.179328 2.092154-.011955 2.092154 .047821C2.092154 .442341 2.020423 1.219427 1.327024 1.996513C1.195517 2.139975 1.195517 2.163885 1.195517 2.187796C1.195517 2.247572 1.255293 2.307347 1.315068 2.307347C1.41071 2.307347 2.331258 1.422665 2.331258 .047821Z"/>
              
              <path id="svg3.g1-102" d="M5.332005-4.805978C5.571108-4.805978 5.66675-4.805978 5.66675-5.033126C5.66675-5.152677 5.571108-5.152677 5.355915-5.152677H4.387547C4.614695-6.38406 4.782067-7.232877 4.877709-7.615442C4.94944-7.902366 5.200498-8.177335 5.511333-8.177335C5.762391-8.177335 6.01345-8.069738 6.133001-7.962142C5.66675-7.914321 5.523288-7.567621 5.523288-7.364384C5.523288-7.12528 5.702615-6.981818 5.929763-6.981818C6.168867-6.981818 6.527522-7.185056 6.527522-7.639352C6.527522-8.141469 6.025405-8.416438 5.499377-8.416438C4.985305-8.416438 4.483188-8.033873 4.244085-7.567621C4.028892-7.149191 3.90934-6.718804 3.634371-5.152677H2.833375C2.606227-5.152677 2.486675-5.152677 2.486675-4.937484C2.486675-4.805978 2.558406-4.805978 2.797509-4.805978H3.56264C3.347447-3.694147 2.857285-.992279 2.582316 .286924C2.379078 1.327024 2.199751 2.199751 1.601993 2.199751C1.566127 2.199751 1.219427 2.199751 1.004234 1.972603C1.613948 1.924782 1.613948 1.398755 1.613948 1.3868C1.613948 1.147696 1.43462 1.004234 1.207472 1.004234C.968369 1.004234 .609714 1.207472 .609714 1.661768C.609714 2.175841 1.135741 2.438854 1.601993 2.438854C2.82142 2.438854 3.323537 .251059 3.455044-.3467C3.670237-1.267248 4.25604-4.447323 4.315816-4.805978H5.332005Z"/>
              
              <path id="svg3.g1-120" d="M5.66675-4.877709C5.284184-4.805978 5.140722-4.519054 5.140722-4.291905C5.140722-4.004981 5.36787-3.90934 5.535243-3.90934C5.893898-3.90934 6.144956-4.220174 6.144956-4.542964C6.144956-5.045081 5.571108-5.272229 5.068991-5.272229C4.339726-5.272229 3.93325-4.554919 3.825654-4.327771C3.550685-5.224408 2.809465-5.272229 2.594271-5.272229C1.374844-5.272229 .729265-3.706102 .729265-3.443088C.729265-3.395268 .777086-3.335492 .860772-3.335492C.956413-3.335492 .980324-3.407223 1.004234-3.455044C1.41071-4.782067 2.211706-5.033126 2.558406-5.033126C3.096389-5.033126 3.203985-4.531009 3.203985-4.244085C3.203985-3.981071 3.132254-3.706102 2.988792-3.132254L2.582316-1.494396C2.402989-.777086 2.056289-.119552 1.422665-.119552C1.362889-.119552 1.06401-.119552 .812951-.274969C1.243337-.358655 1.338979-.71731 1.338979-.860772C1.338979-1.099875 1.159651-1.243337 .932503-1.243337C.645579-1.243337 .334745-.992279 .334745-.609714C.334745-.107597 .896638 .119552 1.41071 .119552C1.984558 .119552 2.391034-.334745 2.642092-.824907C2.833375-.119552 3.431133 .119552 3.873474 .119552C5.092902 .119552 5.738481-1.446575 5.738481-1.709589C5.738481-1.769365 5.69066-1.817186 5.618929-1.817186C5.511333-1.817186 5.499377-1.75741 5.463512-1.661768C5.140722-.609714 4.447323-.119552 3.90934-.119552C3.490909-.119552 3.263761-.430386 3.263761-.920548C3.263761-1.183562 3.311582-1.374844 3.502864-2.163885L3.921295-3.789788C4.100623-4.507098 4.507098-5.033126 5.057036-5.033126C5.080946-5.033126 5.415691-5.033126 5.66675-4.877709Z"/>
              
            </defs>
            
            <g id="svg3.page1" transform="matrix(1.13 0 0 1.13 -63.986043 -65.03376)">
              
              <use x="56.413267" y="65.753425" xlink:href="#svg3.g1-120"/>
              
              <use x="63.065354" y="67.546688" xlink:href="#svg3.g0-111"/>
              
              <use x="67.158404" y="67.546688" xlink:href="#svg3.g0-112"/>
              
              <use x="71.421181" y="67.546688" xlink:href="#svg3.g0-116"/>
              
              <use x="74.977334" y="65.753425" xlink:href="#svg3.g1-59"/>
              
              <use x="80.221493" y="65.753425" xlink:href="#svg3.g1-102"/>
              
              <use x="85.991482" y="67.546688" xlink:href="#svg3.g0-111"/>
              
              <use x="90.084531" y="67.546688" xlink:href="#svg3.g0-112"/>
              
              <use x="94.347308" y="67.546688" xlink:href="#svg3.g0-116"/>
              
            </g>
            
          </svg>
        </g>
      </g>
      <g/>
    </g>
    <g id="y.node.27">
      <g text-rendering="geometricPrecision" stroke-miterlimit="1.45" shape-rendering="geometricPrecision" transform="matrix(1,0,0,1,269,-77)" stroke-linecap="butt">
        <rect x="569.84" y="992.86" fill="none" width="210.12" rx="28" ry="28" height="56"/>
      </g>
      <g>
        <g text-rendering="geometricPrecision" stroke-miterlimit="1.45" shape-rendering="geometricPrecision" font-family="sans-serif" transform="matrix(1,0,0,1,269,-77)" stroke-linecap="butt">
          <text x="657.9811" xml:space="preserve" y="1025.5739" stroke="none">Конец</text>
        </g>
      </g>
    </g>
    <g id="y.edge.3">
      <g text-rendering="geometricPrecision" stroke-miterlimit="1.45" shape-rendering="geometricPrecision" transform="matrix(1,0,0,1,269,-77)" stroke-linecap="butt">
        <path fill="none" d="M377.5 147.9863 L377.5 173.0229"/>
      </g>
    </g>
    <g id="y.edge.4">
      <g text-rendering="geometricPrecision" stroke-miterlimit="1.45" shape-rendering="geometricPrecision" transform="matrix(1,0,0,1,269,-77)" stroke-linecap="butt">
        <path fill="none" d="M377.5 251.0022 L377.5 275.9701"/>
      </g>
    </g>
    <g id="y.edge.9">
      <g text-rendering="geometricPrecision" stroke-miterlimit="1.45" shape-rendering="geometricPrecision" transform="matrix(1,0,0,1,269,-77)" stroke-linecap="butt">
        <path fill="none" d="M377.5 559.9985 L377.5 560.5 L378.6097 560.5 L378.6097 603.2582"/>
      </g>
    </g>
    <g id="y.edge.0">
      <g text-rendering="geometricPrecision" stroke-miterlimit="1.45" shape-rendering="geometricPrecision" transform="matrix(1,0,0,1,269,-77)" stroke-linecap="butt">
        <path fill="none" d="M272.4423 641.86 L150 641.86 L150 660.8336"/>
      </g>
      <g text-rendering="geometricPrecision" stroke-miterlimit="1.45" shape-rendering="geometricPrecision" transform="matrix(1,0,0,1,269,-77)" stroke-linecap="butt">
        <path d="M150 668.8336 L155 656.8336 L150 659.8336 L145 656.8336 Z" stroke="none"/>
      </g>
    </g>
    <g id="y.edge.5">
      <g text-rendering="geometricPrecision" stroke-miterlimit="1.45" shape-rendering="geometricPrecision" transform="matrix(1,0,0,1,269,-77)" stroke-linecap="butt">
        <path fill="none" d="M150 746.8848 L150 819.81"/>
      </g>
    </g>
    <g id="y.edge.1">
      <g text-rendering="geometricPrecision" stroke-miterlimit="1.45" shape-rendering="geometricPrecision" transform="matrix(1,0,0,1,269,-77)" stroke-linecap="butt">
        <path fill="none" d="M255.0152 858.8 L279.6 858.8 L279.6 889.7619"/>
        <path d="M279.6 897.7619 L284.6 885.7619 L279.6 888.7619 L274.6 885.7619 Z" stroke="none"/>
      </g>
      <g>
        <g text-rendering="geometricPrecision" stroke-miterlimit="1.45" shape-rendering="geometricPrecision" font-family="sans-serif" transform="matrix(1,0,0,1,269,-77)" stroke-linecap="butt">
          <text x="260.9236" xml:space="preserve" y="850.9219" stroke="none">Да</text>
        </g>
      </g>
    </g>
    <g id="y.edge.6">
      <g text-rendering="geometricPrecision" stroke-miterlimit="1.45" shape-rendering="geometricPrecision" transform="matrix(1,0,0,1,269,-77)" stroke-linecap="butt">
        <path fill="none" d="M279.6 975.834 L279.6 1005.8276"/>
      </g>
    </g>
    <g id="y.edge.2">
      <g text-rendering="geometricPrecision" stroke-miterlimit="1.45" shape-rendering="geometricPrecision" transform="matrix(1,0,0,1,269,-77)" stroke-linecap="butt">
        <path fill="none" d="M384.5915 1044.8 L420 1044.8 L420 1075.8381"/>
        <path d="M420 1083.8381 L425 1071.8381 L420 1074.8381 L415 1071.8381 Z" stroke="none"/>
      </g>
      <g>
        <g text-rendering="geometricPrecision" stroke-miterlimit="1.45" shape-rendering="geometricPrecision" font-family="sans-serif" transform="matrix(1,0,0,1,269,-77)" stroke-linecap="butt">
          <text x="399.5398" xml:space="preserve" y="1039.1938" stroke="none">Да</text>
        </g>
      </g>
    </g>
    <g id="y.edge.7">
      <g text-rendering="geometricPrecision" stroke-miterlimit="1.45" shape-rendering="geometricPrecision" transform="matrix(1,0,0,1,269,-77)" stroke-linecap="butt">
        <path fill="none" d="M377.5 354.0022 L377.5 378.9701"/>
      </g>
    </g>
    <g id="y.edge.8">
      <g text-rendering="geometricPrecision" stroke-miterlimit="1.45" shape-rendering="geometricPrecision" transform="matrix(1,0,0,1,269,-77)" stroke-linecap="butt">
        <path fill="none" d="M377.5 457.0022 L377.5 481.9701"/>
      </g>
    </g>
    <g id="y.edge.10">
      <g text-rendering="geometricPrecision" stroke-miterlimit="1.45" shape-rendering="geometricPrecision" transform="matrix(1,0,0,1,269,-77)" stroke-linecap="butt">
        <path fill="none" d="M420 1161.7627 L420 1172.86 L540 1172.86 L540 800.72 L157.1797 800.72"/>
        <path d="M149.1797 800.72 L161.1797 805.72 L158.1797 800.72 L161.1797 795.72 Z" stroke="none"/>
      </g>
    </g>
    <g id="y.edge.11">
      <g text-rendering="geometricPrecision" stroke-miterlimit="1.45" shape-rendering="geometricPrecision" transform="matrix(1,0,0,1,269,-77)" stroke-linecap="butt">
        <path fill="none" d="M174.5904 1044.8 L141.52 1044.8 L141.52 1075.8381"/>
        <path d="M141.52 1083.8381 L146.52 1071.8381 L141.52 1074.8381 L136.52 1071.8381 Z" stroke="none"/>
      </g>
    </g>
    <g id="y.edge.12">
      <g text-rendering="geometricPrecision" stroke-miterlimit="1.45" shape-rendering="geometricPrecision" transform="matrix(1,0,0,1,269,-77)" stroke-linecap="butt">
        <path fill="none" d="M141.52 1161.7672 L141.52 1181.7156"/>
      </g>
    </g>
    <g id="y.edge.14">
      <g text-rendering="geometricPrecision" stroke-miterlimit="1.45" shape-rendering="geometricPrecision" transform="matrix(1,0,0,1,269,-77)" stroke-linecap="butt">
        <path fill="none" d="M141.52 1259.6871 L141.52 1279.6356"/>
      </g>
    </g>
    <g id="y.edge.15">
      <g text-rendering="geometricPrecision" stroke-miterlimit="1.45" shape-rendering="geometricPrecision" transform="matrix(1,0,0,1,269,-77)" stroke-linecap="butt">
        <path fill="none" d="M141.52 1357.6072 L141.52 1377.5555"/>
      </g>
    </g>
    <g id="y.edge.13">
      <g text-rendering="geometricPrecision" stroke-miterlimit="1.45" shape-rendering="geometricPrecision" transform="matrix(1,0,0,1,269,-77)" stroke-linecap="butt">
        <path fill="none" d="M141.52 1455.5686 L141.52 1472.86 L-253.75 1472.86 L-253.75 581.43 L371.6556 581.43"/>
        <path d="M379.6556 581.43 L367.6556 576.43 L370.6556 581.43 L367.6556 586.43 Z" stroke="none"/>
      </g>
    </g>
    <g id="y.edge.18">
      <g text-rendering="geometricPrecision" stroke-miterlimit="1.45" shape-rendering="geometricPrecision" transform="matrix(1,0,0,1,269,-77)" stroke-linecap="butt">
        <path fill="none" d="M45.0208 858.8 L-98.48 858.8 L-98.48 897.7619"/>
      </g>
    </g>
    <g id="y.edge.16">
      <g text-rendering="geometricPrecision" stroke-miterlimit="1.45" shape-rendering="geometricPrecision" transform="matrix(1,0,0,1,269,-77)" stroke-linecap="butt">
        <path fill="none" d="M-98.48 975.7971 L-98.48 1005.8174"/>
      </g>
    </g>
    <g id="y.edge.17">
      <g text-rendering="geometricPrecision" stroke-miterlimit="1.45" shape-rendering="geometricPrecision" transform="matrix(1,0,0,1,269,-77)" stroke-linecap="butt">
        <path fill="none" d="M-98.48 1083.7883 L-98.48 1119.1127"/>
      </g>
    </g>
    <g id="y.edge.19">
      <g text-rendering="geometricPrecision" stroke-miterlimit="1.45" shape-rendering="geometricPrecision" transform="matrix(1,0,0,1,269,-77)" stroke-linecap="butt">
        <path fill="none" d="M-98.48 1197.1227 L-98.48 1230 L-223.48 1230 L-223.48 773.08 L142.4736 773.08"/>
        <path d="M150.4736 773.08 L138.4736 768.08 L141.4736 773.08 L138.4736 778.08 Z" stroke="none"/>
      </g>
    </g>
    <g id="y.edge.20">
      <g text-rendering="geometricPrecision" stroke-miterlimit="1.45" shape-rendering="geometricPrecision" transform="matrix(1,0,0,1,269,-77)" stroke-linecap="butt">
        <path fill="none" d="M482.5819 641.86 L671.6 641.86 L671.6 660.8336"/>
        <path d="M671.6 668.8336 L676.6 656.8336 L671.6 659.8336 L666.6 656.8336 Z" stroke="none"/>
      </g>
      <g>
        <g text-rendering="geometricPrecision" stroke-miterlimit="1.45" shape-rendering="geometricPrecision" font-family="sans-serif" transform="matrix(1,0,0,1,269,-77)" stroke-linecap="butt">
          <text x="564.0798" xml:space="preserve" y="636.4139" stroke="none">Да</text>
        </g>
      </g>
    </g>
    <g id="y.edge.21">
      <g text-rendering="geometricPrecision" stroke-miterlimit="1.45" shape-rendering="geometricPrecision" transform="matrix(1,0,0,1,269,-77)" stroke-linecap="butt">
        <path fill="none" d="M671.6 746.8571 L671.6 776.8774"/>
      </g>
    </g>
    <g id="y.edge.22">
      <g text-rendering="geometricPrecision" stroke-miterlimit="1.45" shape-rendering="geometricPrecision" transform="matrix(1,0,0,1,269,-77)" stroke-linecap="butt">
        <path fill="none" d="M671.6 854.8571 L671.6 869.86 L671.6 869.86 L671.6 884.8629"/>
      </g>
    </g>
    <g id="y.edge.23">
      <g text-rendering="geometricPrecision" stroke-miterlimit="1.45" shape-rendering="geometricPrecision" transform="matrix(1,0,0,1,269,-77)" stroke-linecap="butt">
        <path fill="none" d="M674.9 962.84 L674.9 992.8416"/>
      </g>
    </g>
  </g>
</svg>
